<?xml version="1.0" standalone="no"?>
<!DOCTYPE svg PUBLIC "-//W3C//DTD SVG 20010904//EN"
 "http://www.w3.org/TR/2001/REC-SVG-20010904/DTD/svg10.dtd">
<svg version="1.0" xmlns="http://www.w3.org/2000/svg"
 width="1280.000000pt" height="853.000000pt" viewBox="0 0 1280.000000 853.000000"
 preserveAspectRatio="xMidYMid meet">
<metadata>
Created by potrace 1.15, written by Peter Selinger 2001-2017
</metadata>
<g transform="translate(0.000000,853.000000) scale(0.100000,-0.100000)"
fill="#000000" stroke="none">
<path d="M7035 7890 c-16 -4 -43 -15 -60 -23 -28 -15 -79 -23 -275 -47 -85
-10 -214 -54 -310 -106 -41 -22 -99 -69 -156 -126 -51 -50 -96 -88 -102 -84
-5 3 -26 30 -45 58 -19 29 -48 65 -64 79 -37 35 -197 134 -332 207 -60 32 -61
32 -208 32 -146 0 -242 -14 -304 -46 -14 -7 -57 -43 -95 -81 -56 -55 -75 -81
-98 -138 -15 -39 -34 -80 -42 -93 -14 -21 -16 -21 -50 -7 -43 18 -103 19 -171
5 -44 -10 -86 -29 -254 -116 -62 -32 -137 -101 -225 -206 -75 -90 -107 -154
-126 -258 -6 -30 -15 -72 -20 -93 l-9 -38 -48 7 c-46 6 -51 4 -86 -28 -30 -27
-39 -44 -45 -85 -7 -43 -16 -58 -56 -95 -25 -23 -56 -63 -68 -88 l-21 -45 -72
-1 c-113 -3 -221 -68 -238 -145 -4 -17 -21 -48 -39 -68 -17 -20 -44 -55 -60
-78 -16 -24 -32 -43 -37 -43 -4 0 -24 9 -43 21 -19 11 -87 33 -151 49 -113 28
-163 30 -291 10 -1 0 -13 -18 -27 -39 -18 -26 -50 -52 -99 -79 -41 -23 -83
-51 -94 -64 -56 -61 -90 -279 -82 -518 6 -172 23 -235 91 -336 37 -55 46 -77
45 -110 0 -37 -4 -44 -37 -62 -20 -11 -52 -25 -72 -31 -41 -13 -121 -106 -161
-186 -44 -89 -53 -140 -53 -300 0 -147 1 -152 37 -250 42 -116 65 -185 81
-239 6 -21 42 -84 80 -139 l69 -101 -32 -128 c-28 -114 -31 -138 -26 -221 4
-50 14 -114 22 -141 12 -37 15 -73 12 -146 -3 -54 0 -134 7 -179 l12 -81 -27
-25 c-14 -14 -29 -25 -33 -25 -13 0 -66 -65 -67 -81 0 -9 -20 -38 -44 -63 -57
-61 -172 -233 -218 -326 -20 -41 -70 -145 -112 -230 -41 -85 -84 -171 -95
-190 -11 -19 -49 -95 -85 -168 -46 -96 -60 -135 -51 -138 7 -3 44 8 82 24 37
17 82 34 98 37 46 11 178 66 196 82 41 35 391 97 614 108 66 3 140 10 165 15
25 5 86 16 135 25 96 18 428 95 535 125 36 10 133 37 215 59 83 22 191 53 240
69 98 32 271 73 279 65 2 -3 -5 -30 -16 -61 -12 -34 -20 -82 -20 -117 1 -48
-6 -72 -30 -120 -20 -38 -31 -74 -30 -100 2 -348 6 -459 17 -515 13 -63 87
-236 124 -289 10 -14 21 -39 25 -55 12 -49 98 -217 138 -271 36 -47 80 -146
93 -207 3 -15 13 -31 23 -36 9 -4 92 -4 183 1 l165 10 240 -47 c131 -26 259
-52 284 -59 55 -14 149 -14 174 0 15 8 20 25 23 79 2 38 5 81 7 97 2 15 4 38
5 52 2 43 16 28 49 -52 57 -139 143 -227 316 -323 49 -28 91 -50 93 -50 2 0
36 -15 76 -33 41 -20 113 -41 167 -51 52 -10 129 -29 170 -43 41 -14 89 -25
106 -25 55 3 158 60 234 130 19 18 46 35 60 39 36 9 98 65 121 109 10 21 33
49 49 62 17 13 42 45 55 70 14 26 53 78 88 115 l63 68 80 10 c87 11 174 39
217 70 28 20 29 20 65 3 51 -24 134 -23 202 3 30 12 67 24 82 27 15 4 42 19
60 35 18 16 66 45 106 65 57 29 76 34 92 26 29 -15 99 -12 130 6 26 16 70 90
70 117 0 6 29 39 65 73 44 41 65 68 65 84 0 14 -20 47 -50 81 -27 32 -50 61
-50 66 0 4 -7 22 -16 38 -9 17 -30 57 -46 90 -17 33 -37 67 -44 76 -27 30 4
40 117 38 57 -1 119 1 137 6 22 5 37 3 49 -6 10 -9 59 -16 142 -21 69 -3 212
-11 316 -16 107 -6 216 -17 250 -26 97 -26 294 -44 538 -51 171 -5 232 -4 242
5 41 34 -4 144 -84 208 -39 32 -235 132 -258 132 -31 0 -281 128 -488 250 -44
26 -120 69 -169 96 -49 27 -89 53 -88 57 1 4 53 10 114 13 108 5 200 25 308
68 19 8 82 31 140 51 86 31 199 75 365 145 90 37 141 69 209 130 91 81 92 83
147 186 39 73 40 78 30 121 -7 24 -9 60 -5 79 4 25 1 43 -15 69 -12 20 -21 45
-21 57 0 11 -22 59 -48 107 -27 47 -51 94 -55 103 -8 23 -87 62 -167 82 -36 9
-95 26 -131 36 -36 11 -76 20 -88 20 -36 0 -58 17 -65 50 -5 28 -16 36 -93 72
-64 29 -110 60 -168 112 -44 40 -94 78 -112 85 -17 7 -39 21 -48 31 -20 22
-24 16 95 155 121 141 156 189 210 293 28 54 69 121 90 148 58 73 98 142 115
201 8 29 40 88 69 131 67 97 89 174 80 271 -6 58 -11 70 -41 99 -19 17 -41 32
-48 32 -8 0 -40 25 -73 55 -58 53 -59 56 -66 118 -17 172 -156 449 -246 494
-14 7 -63 31 -110 54 -119 57 -119 57 -125 169 -9 141 -12 154 -55 212 -22 28
-47 75 -56 103 -35 106 -97 219 -143 262 -44 40 -49 42 -109 43 -52 0 -80 -7
-149 -37 -118 -51 -176 -111 -242 -253 -79 -168 -90 -137 -17 49 32 83 36 103
36 186 0 115 -21 188 -79 273 -38 56 -49 65 -134 105 -186 89 -206 97 -239 97
-18 0 -60 9 -93 19 l-60 19 -7 48 c-6 44 -14 55 -109 146 -56 54 -110 103
-120 108 -10 6 -48 17 -85 26 -82 19 -113 41 -224 160 -57 60 -103 122 -139
187 -31 54 -63 100 -74 103 -10 3 -38 3 -60 0 -36 -5 -49 -2 -87 24 -37 25
-55 30 -100 29 -30 -1 -68 -5 -85 -9z m-2100 -567 c-7 -110 -14 -131 -35 -118
-15 10 -6 160 12 200 23 51 30 25 23 -82z m-2224 -2404 c16 -32 89 -105 158
-157 42 -32 39 -42 -15 -42 -53 0 -145 44 -188 89 -38 39 -44 88 -16 124 27
34 40 31 61 -14z"/>
</g>
</svg>
