<?xml version="1.0" standalone="no"?>
<!DOCTYPE svg PUBLIC "-//W3C//DTD SVG 20010904//EN"
 "http://www.w3.org/TR/2001/REC-SVG-20010904/DTD/svg10.dtd">
<svg version="1.0" xmlns="http://www.w3.org/2000/svg"
 width="1280.000000pt" height="1280.000000pt" viewBox="0 0 1280.000000 1280.000000"
 preserveAspectRatio="xMidYMid meet">
<metadata>
Created by potrace 1.15, written by Peter Selinger 2001-2017
</metadata>
<g transform="translate(0.000000,1280.000000) scale(0.100000,-0.100000)"
fill="#000000" stroke="none">
<path d="M6312 12340 c0 -14 2 -19 5 -12 2 6 2 18 0 25 -3 6 -5 1 -5 -13z"/>
<path d="M6212 12280 c0 -19 2 -27 5 -17 2 9 2 25 0 35 -3 9 -5 1 -5 -18z"/>
<path d="M6733 12250 c0 -25 2 -35 4 -22 2 12 2 32 0 45 -2 12 -4 2 -4 -23z"/>
<path d="M6832 12260 c0 -14 2 -19 5 -12 2 6 2 18 0 25 -3 6 -5 1 -5 -13z"/>
<path d="M6303 12210 c0 -25 2 -35 4 -22 2 12 2 32 0 45 -2 12 -4 2 -4 -23z"/>
<path d="M6186 12158 c-4 -29 -16 -93 -28 -143 -74 -328 -97 -408 -209 -755
-139 -428 -179 -658 -179 -1027 0 -79 -4 -142 -8 -139 -5 3 -48 8 -97 12 -62
5 -89 3 -94 -5 -11 -17 -40 113 -52 236 -21 202 4 452 67 665 39 136 67 204
218 541 112 250 174 408 206 517 10 36 21 74 25 85 6 14 5 17 -3 10 -6 -5 -24
-50 -40 -100 -39 -117 -96 -242 -242 -528 -253 -497 -312 -700 -310 -1076 0
-102 4 -217 9 -256 5 -38 6 -74 3 -79 -7 -12 -154 2 -163 16 -27 43 -69 318
-69 446 1 188 40 409 107 596 49 139 185 380 336 597 65 93 180 289 174 295
-2 2 -30 -35 -63 -84 -32 -48 -93 -132 -134 -187 -273 -362 -373 -543 -441
-800 -65 -244 -74 -451 -33 -817 l6 -56 -80 -4 -80 -3 -22 70 c-11 39 -30 124
-42 190 -29 172 -22 457 16 625 74 330 205 570 466 855 81 88 91 105 35 58
-99 -82 -246 -244 -331 -364 -177 -252 -293 -636 -294 -979 0 -111 23 -320 45
-403 8 -31 14 -63 12 -70 -1 -6 -24 -17 -52 -23 -27 -6 -59 -14 -71 -17 -19
-7 -25 3 -62 100 -68 177 -77 236 -77 483 1 201 2 223 28 330 54 222 151 449
273 640 45 70 48 78 20 46 -97 -107 -272 -423 -328 -591 -127 -381 -117 -711
33 -1088 102 -257 228 -453 418 -650 270 -280 579 -456 978 -557 87 -22 94
-26 123 -67 34 -47 143 -137 201 -167 l36 -19 6 -126 c4 -69 7 -1986 7 -4258
l0 -4133 115 0 115 0 2 4053 c0 2228 2 4057 3 4062 2 6 4 93 5 195 1 102 4
180 6 173 3 -7 12 -9 20 -6 13 5 13 7 2 15 -9 7 -8 8 7 6 11 -2 26 3 33 12 8
8 11 9 7 2 -7 -14 52 23 104 65 19 16 39 30 45 32 6 2 31 21 56 41 79 66 133
104 230 165 52 33 98 64 101 68 3 5 10 9 15 10 5 1 8 5 7 9 -2 4 4 5 12 2 8
-4 15 -1 15 6 0 6 5 8 10 5 6 -3 10 -2 10 2 0 5 17 17 38 28 40 21 224 139
255 164 11 9 52 43 91 76 320 268 562 660 653 1059 26 114 23 400 -6 541 -55
271 -198 593 -339 765 -84 102 -202 217 -202 196 0 -3 32 -41 71 -83 192 -211
331 -517 383 -845 32 -197 16 -480 -35 -628 -18 -53 -26 -60 -58 -49 -16 6
-32 9 -37 8 -5 -1 -16 0 -24 4 -35 13 -59 14 -64 3 -6 -12 2 91 10 144 13 78
4 357 -15 481 -53 343 -175 602 -397 840 -109 116 -294 298 -294 288 0 -3 27
-37 60 -75 271 -315 375 -464 448 -645 69 -169 112 -407 112 -618 0 -106 -22
-288 -43 -362 l-13 -44 -64 -1 -65 -1 0 276 c0 311 -9 380 -71 574 -47 146
-123 293 -242 470 -243 361 -268 401 -335 520 -14 26 -16 27 -11 7 13 -51 110
-230 239 -445 189 -314 236 -413 284 -599 38 -146 51 -242 52 -406 2 -154 -5
-245 -28 -345 l-16 -70 -66 -2 -66 -1 -1 266 c-1 250 -2 275 -27 387 -45 201
-77 286 -227 600 -86 179 -166 355 -175 385 -4 14 -13 39 -20 55 -7 17 -35 93
-61 170 -49 145 -61 175 -49 115 21 -103 130 -421 213 -620 35 -85 87 -209
114 -274 65 -158 115 -324 139 -464 30 -176 24 -483 -11 -611 -8 -30 -14 -40
-20 -31 -4 7 -12 10 -17 7 -6 -4 -48 -9 -94 -11 l-84 -5 -2 202 c-4 349 -27
475 -196 1052 -59 203 -106 395 -133 550 -9 50 -24 135 -34 190 -22 125 -25
104 -5 -42 28 -215 98 -561 149 -738 32 -110 106 -427 128 -545 20 -109 23
-156 22 -370 0 -135 -5 -258 -11 -275 -9 -29 -12 -30 -78 -33 -38 -2 -75 -8
-82 -14 -11 -8 -13 19 -13 143 0 152 -19 423 -40 569 -16 112 -87 539 -99 590
-5 25 -15 92 -21 150 -6 58 -16 121 -20 140 -5 19 -14 98 -21 175 -11 131 -27
218 -28 156 -1 -14 4 -61 9 -105 6 -45 17 -148 25 -231 9 -82 22 -193 30 -245
41 -261 96 -659 106 -773 14 -154 8 -522 -9 -554 -10 -18 -22 -22 -87 -25
l-75 -3 -5 30 c-2 17 -7 152 -10 300 -6 285 -47 910 -60 923 -4 4 -5 -31 -1
-78 31 -394 45 -923 30 -1103 -7 -73 -7 -75 -35 -79 l-29 -5 -1 66 c-1 36 -4
98 -8 136 l-6 70 -7 -100 c-4 -55 -10 -115 -14 -133 l-7 -33 -95 3 c-116 4
-109 -9 -112 203 -3 176 -4 173 -21 -41 l-12 -160 -28 4 c-20 3 -29 0 -30 -9
-1 -8 -5 9 -9 36 -21 129 -5 477 40 925 19 188 25 315 10 200 -41 -295 -90
-842 -90 -1001 0 -36 -3 -86 -6 -110 l-6 -44 -86 5 c-85 5 -86 5 -94 35 -12
41 -10 371 2 488 13 129 41 296 95 582 54 284 91 505 111 670 8 66 19 142 24
168 11 53 13 114 4 105 -3 -3 -14 -68 -24 -144 -26 -194 -47 -326 -65 -414 -8
-41 -21 -109 -29 -150 -7 -41 -38 -192 -69 -335 -82 -389 -92 -461 -113 -875
l-6 -125 -62 0 -61 0 -12 45 c-19 73 -26 275 -14 415 19 220 50 364 176 810
40 143 80 294 90 335 44 195 67 302 80 380 8 47 17 97 21 113 4 15 2 27 -4 27
-5 0 -13 -24 -16 -52z"/>
<path d="M6743 12110 c0 -36 2 -50 4 -32 2 17 2 47 0 65 -2 17 -4 3 -4 -33z"/>
<path d="M6393 11775 c0 -22 2 -30 4 -17 2 12 2 30 0 40 -3 9 -5 -1 -4 -23z"/>
<path d="M7800 11776 c0 -2 8 -10 18 -17 15 -13 16 -12 3 4 -13 16 -21 21 -21
13z"/>
<path d="M6653 11655 c0 -38 2 -53 4 -32 2 20 2 52 0 70 -2 17 -4 1 -4 -38z"/>
<path d="M6382 11620 c0 -19 2 -27 5 -17 2 9 2 25 0 35 -3 9 -5 1 -5 -18z"/>
<path d="M6361 11480 c0 -37 2 -41 9 -22 6 13 6 31 0 45 -7 18 -9 14 -9 -23z"/>
<path d="M6663 11430 c0 -36 2 -50 4 -32 2 17 2 47 0 65 -2 17 -4 3 -4 -33z"/>
<path d="M6353 11360 c0 -30 2 -43 4 -27 2 15 2 39 0 55 -2 15 -4 2 -4 -28z"/>
<path d="M6393 10595 c0 -22 2 -30 4 -17 2 12 2 30 0 40 -3 9 -5 -1 -4 -23z"/>
<path d="M3112 8290 c0 -14 2 -19 5 -12 2 6 2 18 0 25 -3 6 -5 1 -5 -13z"/>
<path d="M3002 8225 c0 -16 2 -22 5 -12 2 9 2 23 0 30 -3 6 -5 -1 -5 -18z"/>
<path d="M9352 8225 c0 -16 2 -22 5 -12 2 9 2 23 0 30 -3 6 -5 -1 -5 -18z"/>
<path d="M9873 8205 c0 -22 2 -30 4 -17 2 12 2 30 0 40 -3 9 -5 -1 -4 -23z"/>
<path d="M3632 8205 c0 -16 2 -22 5 -12 2 9 2 23 0 30 -3 6 -5 -1 -5 -18z"/>
<path d="M9982 8205 c0 -16 2 -22 5 -12 2 9 2 23 0 30 -3 6 -5 -1 -5 -18z"/>
<path d="M3521 8194 c0 -11 3 -14 6 -6 3 7 2 16 -1 19 -3 4 -6 -2 -5 -13z"/>
<path d="M9443 8160 c0 -25 2 -35 4 -22 2 12 2 32 0 45 -2 12 -4 2 -4 -23z"/>
<path d="M3092 8160 c0 -19 2 -27 5 -17 2 9 2 25 0 35 -3 9 -5 1 -5 -18z"/>
<path d="M2987 8135 c-7 -46 -47 -232 -77 -355 -11 -47 -27 -110 -34 -140 -17
-70 -53 -188 -127 -415 -73 -221 -132 -446 -155 -585 -11 -67 -19 -195 -23
-349 l-6 -245 -60 3 c-33 1 -77 6 -97 11 -26 5 -38 4 -38 -3 0 -7 -3 -7 -9 -1
-45 45 -67 455 -36 646 37 229 86 372 248 733 46 105 98 222 115 260 68 158
147 386 140 406 -2 7 -14 -19 -27 -57 -42 -128 -82 -218 -228 -509 -221 -440
-272 -572 -314 -805 -24 -138 -30 -331 -16 -551 l8 -125 -82 10 -82 11 -14 40
c-49 141 -67 442 -39 655 42 315 129 507 442 980 71 108 169 275 152 260 -3
-3 -42 -54 -85 -115 -44 -60 -130 -180 -193 -265 -62 -85 -141 -200 -174 -254
-114 -190 -196 -424 -226 -651 -21 -152 -14 -426 16 -617 l5 -36 -81 -4 -81
-3 -24 80 c-112 371 -72 816 105 1190 68 143 172 289 338 473 41 45 70 82 65
82 -13 0 -243 -234 -300 -305 -228 -287 -355 -669 -354 -1065 0 -136 17 -298
40 -400 19 -82 18 -85 -46 -98 -32 -7 -65 -13 -72 -15 -21 -3 -90 176 -112
293 -78 401 14 821 270 1239 29 46 50 85 48 87 -12 12 -171 -234 -240 -371
-120 -237 -169 -414 -188 -674 -13 -193 12 -358 87 -573 75 -212 156 -365 290
-543 277 -371 656 -621 1120 -740 99 -25 107 -30 159 -95 30 -38 135 -120 183
-143 l42 -21 0 -2233 0 -2233 120 0 120 0 0 2220 c0 1473 3 2220 10 2220 6 0
10 -4 10 -10 0 -5 7 -7 16 -3 13 5 13 7 2 14 -9 6 -7 9 10 9 12 0 22 4 22 8 0
5 17 15 39 22 21 7 52 25 69 41 17 16 34 29 37 29 3 0 13 7 23 15 75 67 258
194 365 254 31 18 57 36 57 41 0 4 8 10 18 14 17 6 58 29 164 92 147 87 363
280 486 433 218 271 360 578 404 876 18 127 19 152 8 265 -23 243 -72 427
-168 633 -69 147 -142 264 -228 367 -65 79 -151 160 -168 160 -3 0 29 -40 73
-90 89 -101 152 -192 205 -298 153 -304 224 -672 185 -959 -20 -146 -60 -276
-83 -268 -6 3 -22 7 -36 10 -14 2 -44 9 -67 13 -29 6 -43 6 -46 -2 -3 -6 -3 1
-1 15 67 550 -28 980 -295 1334 -54 71 -414 436 -380 385 13 -19 35 -48 50
-65 14 -16 48 -55 75 -85 187 -213 301 -383 367 -548 115 -289 145 -700 70
-975 l-16 -58 -61 3 -61 3 -1 260 c0 288 -11 377 -66 560 -56 186 -150 365
-307 585 -86 119 -184 270 -247 377 -26 46 -49 81 -51 79 -9 -8 198 -393 256
-475 46 -65 161 -275 198 -361 119 -274 158 -565 118 -872 -19 -142 -31 -173
-65 -173 -14 1 -42 -2 -62 -6 l-37 -6 1 246 c1 213 -2 262 -21 366 -37 207
-80 327 -218 615 -137 284 -193 414 -244 560 -16 47 -33 94 -39 105 -5 11 -14
36 -20 55 l-10 35 6 -40 c10 -77 120 -394 209 -605 168 -398 200 -490 237
-678 18 -88 21 -142 21 -307 -1 -126 -6 -228 -15 -275 -15 -85 -18 -87 -131
-89 -32 0 -67 -6 -78 -11 -15 -9 -19 -7 -19 7 0 10 -2 122 -4 248 -6 305 -35
465 -158 875 -39 131 -48 164 -103 375 -31 118 -80 364 -90 450 -8 62 -24 109
-25 70 0 -24 23 -172 56 -355 14 -74 67 -306 119 -515 52 -209 101 -420 109
-470 43 -255 46 -499 10 -667 -5 -27 -7 -28 -79 -28 -49 0 -75 -4 -78 -12 -3
-7 -6 10 -6 37 -4 204 -24 514 -40 635 -18 128 -114 712 -127 765 -2 11 -11
81 -20 155 -9 74 -22 182 -29 240 l-14 105 5 -110 c3 -60 12 -155 19 -210 8
-55 17 -127 20 -160 7 -65 34 -250 65 -440 49 -300 63 -455 64 -700 1 -164 -3
-253 -11 -280 l-13 -41 -72 -3 c-40 -1 -75 -4 -79 -6 -8 -5 -19 176 -19 309 0
147 -28 677 -41 771 -6 44 -14 139 -19 210 l-9 130 4 -130 c2 -71 12 -231 21
-355 18 -241 24 -771 11 -881 -7 -59 -11 -65 -30 -65 -29 1 -34 25 -36 155 0
57 -3 102 -5 100 -2 -2 -9 -52 -15 -110 -6 -58 -13 -113 -17 -122 -5 -14 -21
-17 -99 -17 l-93 0 -8 33 c-4 17 -10 97 -13 177 l-6 145 -8 -150 c-6 -126 -22
-253 -26 -206 -1 9 -9 12 -25 9 -17 -3 -27 0 -31 11 -10 24 -6 431 5 556 9
108 44 461 56 580 4 38 3 56 -3 50 -18 -18 -87 -746 -98 -1033 -3 -78 -8 -148
-11 -155 -3 -9 -26 -11 -84 -6 -44 3 -83 9 -87 12 -25 26 -29 304 -8 508 18
166 39 296 100 614 79 416 137 797 134 890 -1 23 -7 -3 -14 -60 -34 -261 -78
-514 -150 -848 -97 -453 -121 -623 -132 -928 l-6 -185 -48 6 c-26 4 -55 3 -63
-2 -18 -10 -23 2 -37 109 -16 122 -6 406 21 558 24 140 45 227 101 425 85 301
130 467 145 535 69 312 99 475 91 498 -2 7 -6 -6 -10 -28z"/>
<path d="M9323 8065 c-34 -169 -104 -463 -123 -515 -5 -14 -23 -72 -40 -130
-18 -58 -52 -166 -77 -240 -123 -376 -154 -541 -162 -879 l-6 -255 -55 3 c-30
1 -77 4 -105 6 l-50 3 -17 69 c-25 96 -37 290 -27 435 18 272 74 461 250 850
71 156 167 380 196 458 35 90 76 230 70 236 -3 3 -15 -25 -27 -63 -39 -118
-98 -249 -247 -547 -206 -411 -253 -534 -299 -781 -18 -101 -24 -358 -11 -546
l8 -115 -83 10 -82 11 -18 60 c-46 150 -62 417 -37 620 37 307 143 547 419
955 86 128 188 300 177 300 -3 0 -17 -19 -33 -42 -16 -24 -40 -59 -55 -78 -14
-19 -59 -80 -100 -135 -143 -193 -230 -320 -280 -407 -188 -328 -254 -683
-210 -1125 8 -79 13 -145 10 -147 -2 -3 -38 -6 -79 -7 l-75 -2 -26 94 c-103
370 -65 798 102 1157 75 161 165 287 347 490 41 45 69 82 63 82 -14 0 -189
-175 -274 -275 -150 -174 -265 -406 -331 -670 -61 -242 -65 -559 -10 -813 9
-40 14 -78 11 -86 -3 -7 -27 -18 -54 -24 -26 -6 -57 -13 -68 -16 -18 -6 -25 6
-59 95 -64 166 -79 255 -80 469 -1 114 4 212 12 255 48 258 118 440 267 692
74 126 67 128 -20 5 -85 -119 -192 -319 -245 -457 -87 -223 -128 -544 -96
-735 65 -378 211 -688 461 -977 265 -308 580 -503 995 -618 135 -37 150 -46
190 -104 20 -29 145 -124 193 -147 l37 -18 0 -2233 0 -2233 120 0 120 0 0
2219 0 2218 28 -4 c22 -4 24 -2 12 7 -12 10 -11 11 8 7 15 -4 22 0 22 10 0 9
6 13 15 9 8 -3 15 -1 15 4 0 6 6 10 13 10 7 0 32 16 55 36 23 19 42 33 42 30
0 -3 49 34 109 82 60 49 161 119 225 156 64 38 116 73 116 77 0 5 4 9 9 9 5 0
44 20 86 45 311 184 531 393 710 675 201 317 299 648 275 933 -13 151 -18 188
-41 284 -63 267 -206 557 -364 743 -67 77 -144 150 -160 150 -3 0 27 -37 67
-82 41 -46 92 -110 115 -144 211 -311 330 -782 283 -1119 -13 -91 -37 -191
-56 -233 -17 -37 -22 -37 -131 -14 -35 8 -43 6 -47 -7 -3 -9 -3 0 -1 19 18
147 27 314 21 415 -11 219 -66 458 -146 637 -86 190 -190 325 -431 563 -141
140 -155 137 -29 -5 264 -299 378 -482 445 -715 49 -168 66 -298 65 -489 0
-156 -10 -250 -36 -353 l-16 -63 -59 0 c-50 0 -61 3 -67 20 -4 10 -4 77 1 147
28 447 -62 780 -307 1143 -178 263 -276 410 -276 414 0 2 -20 37 -45 77 -25
40 -45 70 -45 66 0 -26 195 -380 304 -552 233 -366 322 -743 271 -1149 -18
-147 -30 -184 -59 -179 -12 3 -40 0 -63 -5 l-43 -10 1 232 c1 234 -1 264 -28
416 -31 177 -78 303 -230 620 -136 281 -233 515 -274 660 -16 54 -19 63 -24
59 -15 -16 110 -387 218 -644 128 -306 143 -344 185 -480 56 -179 75 -307 76
-495 1 -161 -19 -355 -37 -367 -9 -5 -84 -13 -177 -17 l-35 -1 3 150 c7 309
-28 525 -155 955 -107 366 -150 542 -194 800 -10 63 -23 133 -29 155 -25 108
16 -193 56 -405 22 -119 58 -269 125 -535 127 -496 158 -740 128 -1003 -16
-133 -15 -132 -99 -132 -49 0 -70 -4 -70 -12 0 -9 -3 -8 -10 2 -5 8 -9 98 -10
200 0 275 -20 446 -105 935 -42 238 -64 391 -100 690 l-14 110 6 -110 c3 -60
9 -141 13 -180 33 -265 44 -345 75 -545 52 -336 74 -526 81 -720 6 -157 -4
-327 -21 -372 -4 -9 -29 -15 -77 -17 -40 -1 -75 -4 -79 -6 -9 -6 -19 131 -19
269 0 109 -26 656 -35 731 -2 17 -8 95 -14 175 -18 236 -19 241 -15 100 2 -74
9 -207 14 -295 33 -518 37 -741 15 -910 -7 -55 -13 -94 -14 -86 0 8 -8 11 -20
8 -26 -6 -31 15 -31 142 0 57 -2 102 -5 99 -4 -3 -10 -48 -15 -99 -15 -151 -5
-139 -115 -139 -88 0 -94 1 -101 23 -4 12 -10 94 -13 182 l-6 160 -8 -145 c-7
-128 -22 -259 -26 -222 -1 9 -11 12 -28 10 -28 -3 -28 -2 -35 67 -7 80 8 517
22 645 5 47 16 157 25 245 8 88 17 176 21 196 3 22 1 40 -5 44 -7 4 -11 -9
-11 -37 -1 -24 -7 -95 -15 -158 -26 -202 -63 -630 -70 -795 -6 -168 -12 -218
-24 -211 -3 3 -41 6 -84 7 -57 2 -78 7 -83 19 -4 8 -9 92 -12 186 -6 236 22
478 108 904 25 127 65 362 115 681 8 53 17 136 19 185 3 49 3 76 0 59 -2 -16
-11 -75 -19 -130 -9 -55 -19 -129 -24 -165 -21 -148 -55 -330 -111 -590 -102
-475 -127 -649 -137 -951 l-6 -189 -68 1 -67 1 -7 47 c-15 94 -21 269 -13 386
16 242 42 360 223 995 56 194 150 652 143 689 -2 9 -13 -33 -25 -94z"/>
<path d="M3642 8135 c0 -16 2 -22 5 -12 2 9 2 23 0 30 -3 6 -5 -1 -5 -18z"/>
<path d="M3543 8050 c0 -41 2 -58 4 -37 2 20 2 54 0 75 -2 20 -4 3 -4 -38z"/>
<path d="M9893 8045 c0 -38 2 -53 4 -32 2 20 2 52 0 70 -2 17 -4 1 -4 -38z"/>
<path d="M3202 7890 c0 -14 2 -19 5 -12 2 6 2 18 0 25 -3 6 -5 1 -5 -13z"/>
<path d="M9551 7894 c0 -11 3 -14 6 -6 3 7 2 16 -1 19 -3 4 -6 -2 -5 -13z"/>
<path d="M9532 7715 c0 -16 2 -22 5 -12 2 9 2 23 0 30 -3 6 -5 -1 -5 -18z"/>
<path d="M3180 7715 c0 -8 5 -15 10 -15 6 0 10 7 10 15 0 8 -4 15 -10 15 -5 0
-10 -7 -10 -15z"/>
<path d="M3453 7610 c0 -30 2 -43 4 -27 2 15 2 39 0 55 -2 15 -4 2 -4 -28z"/>
<path d="M9790 7638 c0 -16 5 -28 10 -28 13 0 13 20 0 40 -8 12 -10 9 -10 -12z"/>
<path d="M3173 7570 c0 -25 2 -35 4 -22 2 12 2 32 0 45 -2 12 -4 2 -4 -23z"/>
<path d="M9523 7570 c0 -25 2 -35 4 -22 2 12 2 32 0 45 -2 12 -4 2 -4 -23z"/>
<path d="M3163 7435 c0 -27 2 -38 4 -22 2 15 2 37 0 50 -2 12 -4 0 -4 -28z"/>
<path d="M9513 7440 c0 -25 2 -35 4 -22 2 12 2 32 0 45 -2 12 -4 2 -4 -23z"/>
<path d="M3148 7331 c-5 -18 -8 -43 -8 -55 1 -19 2 -19 11 -3 6 9 9 34 7 55
l-3 37 -7 -34z"/>
<path d="M9498 7344 c-5 -4 -8 -26 -8 -48 1 -33 3 -38 11 -23 11 19 8 83 -3
71z"/>
<path d="M9561 6944 c0 -11 3 -14 6 -6 3 7 2 16 -1 19 -3 4 -6 -2 -5 -13z"/>
<path d="M3202 6755 c0 -16 2 -22 5 -12 2 9 2 23 0 30 -3 6 -5 -1 -5 -18z"/>
<path d="M9551 6754 c0 -11 3 -14 6 -6 3 7 2 16 -1 19 -3 4 -6 -2 -5 -13z"/>
<path d="M9531 6544 c0 -11 3 -14 6 -6 3 7 2 16 -1 19 -3 4 -6 -2 -5 -13z"/>
</g>
</svg>
